<svg data-v-423bf9ae="" xmlns="http://www.w3.org/2000/svg" viewBox="0 0 2580 2427" class="iconLeft"><!----><!----><!----><g data-v-423bf9ae="" id="93c1889c-bd31-4e8a-b11d-72c79076748d" fill="white" transform="matrix(4.72440951977241,0,0,4.72440951977241,2435.357067226554,1163.4090052155657)"><path d="M4.83 6.57C4.80 6.86 4.56 7.08 4.27 7.08C3.98 7.08 3.72 6.86 3.71 6.57L3.71 6.52C3.71 6.20 3.58 5.89 3.37 5.67C3.16 5.45 2.90 5.33 2.62 5.33C2.34 5.33 2.07 5.45 1.88 5.67C1.65 5.89 1.54 6.20 1.54 6.52L1.54 6.57C1.51 6.86 1.27 7.08 0.98 7.08C0.69 7.08 0.45 6.86 0.42 6.57L0.42 6.52C0.42 5.25 1.41 4.21 2.62 4.21C3.84 4.21 4.83 5.25 4.83 6.52ZM4.83 13.44C4.83 13.75 4.58 14 4.27 14C3.96 14 3.71 13.75 3.71 13.44L3.71 10.58L1.54 10.58L1.54 13.44C1.54 13.75 1.29 14 0.98 14C0.67 14 0.42 13.75 0.42 13.44L0.42 7.10C0.56 7.24 0.76 7.32 0.98 7.32C1.20 7.32 1.40 7.24 1.54 7.10L1.54 9.46L3.71 9.46L3.71 7.10C3.85 7.24 4.05 7.32 4.27 7.32C4.48 7.32 4.68 7.24 4.83 7.10ZM5.67 8.96C5.67 8.72 5.71 8.48 5.77 8.27C6.05 7.34 6.89 6.66 7.85 6.65L7.87 6.65C9.09 6.65 10.08 7.69 10.08 8.96C10.08 9.06 10.05 9.14 10.02 9.21C9.93 9.39 9.73 9.52 9.52 9.52C9.30 9.52 9.10 9.39 9.02 9.21C8.97 9.14 8.96 9.06 8.96 8.96C8.96 8.64 8.83 8.34 8.62 8.11C8.41 7.90 8.15 7.77 7.87 7.77C7.59 7.77 7.32 7.90 7.13 8.11C6.90 8.34 6.79 8.64 6.79 8.96C6.79 9.06 6.78 9.14 6.73 9.21C6.64 9.39 6.45 9.52 6.23 9.52C6.01 9.52 5.82 9.39 5.73 9.21C5.70 9.14 5.67 9.06 5.67 8.96ZM10.08 11.69C10.08 12.96 9.09 14 7.87 14C7.48 14 7.11 13.89 6.79 13.71L6.79 16.35C6.79 16.66 6.54 16.91 6.23 16.91C5.92 16.91 5.67 16.66 5.67 16.35L5.67 9.52C5.81 9.67 6.01 9.76 6.23 9.76C6.45 9.76 6.65 9.67 6.79 9.52L6.79 11.69C6.79 12.01 6.90 12.32 7.13 12.54C7.32 12.77 7.59 12.88 7.87 12.88C8.15 12.88 8.41 12.77 8.62 12.54C8.83 12.32 8.96 12.01 8.96 11.69L8.96 9.52C9.10 9.67 9.30 9.76 9.52 9.76C9.73 9.76 9.93 9.67 10.08 9.52ZM12.04 11.12C11.90 10.98 11.70 10.89 11.48 10.89C11.27 10.89 11.06 10.98 10.92 11.12L10.92 4.79C10.92 4.48 11.17 4.23 11.48 4.23C11.79 4.23 12.04 4.48 12.04 4.79ZM11.48 11.13C11.79 11.13 12.04 11.38 12.04 11.69C12.04 12.01 12.17 12.32 12.38 12.54C12.57 12.77 12.84 12.88 13.12 12.88C13.43 12.88 13.72 12.74 13.93 12.47C14.13 12.24 14.48 12.21 14.71 12.40C14.97 12.60 14.99 12.95 14.80 13.19C14.38 13.71 13.78 14 13.12 14C11.91 14 10.92 12.96 10.92 11.69C10.92 11.38 11.17 11.13 11.48 11.13ZM16.67 11.12C16.53 10.98 16.34 10.89 16.11 10.89C15.89 10.89 15.69 10.98 15.55 11.12L15.55 7.21C15.55 6.90 15.81 6.65 16.11 6.65C16.42 6.65 16.67 6.90 16.67 7.21ZM19.96 11.12C19.81 10.98 19.61 10.89 19.40 10.89C19.18 10.89 18.98 10.98 18.84 11.12L18.84 7.21C18.84 6.90 19.10 6.65 19.40 6.65C19.71 6.65 19.96 6.90 19.96 7.21ZM17.75 14C16.55 14 15.55 12.96 15.55 11.69C15.55 11.38 15.81 11.13 16.11 11.13C16.42 11.13 16.67 11.38 16.67 11.69C16.67 12.01 16.79 12.32 17.01 12.54C17.21 12.77 17.47 12.88 17.75 12.88C18.03 12.88 18.30 12.77 18.51 12.54C18.72 12.32 18.84 12.01 18.84 11.69C18.84 11.38 19.10 11.13 19.40 11.13C19.71 11.13 19.96 11.38 19.96 11.69C19.96 12.96 18.97 14 17.75 14ZM19.96 14.60C19.96 15.88 18.97 16.91 17.75 16.91C17.16 16.91 16.62 16.73 16.23 16.38C15.79 16.00 15.55 15.44 15.55 14.83C15.55 14.52 15.81 14.27 16.11 14.27C16.42 14.27 16.67 14.52 16.67 14.83C16.67 15.13 16.77 15.37 16.97 15.54C17.16 15.71 17.44 15.79 17.75 15.79C18.03 15.79 18.30 15.68 18.51 15.46C18.72 15.23 18.84 14.92 18.84 14.60L18.84 13.97C19.33 13.72 19.73 13.30 19.96 12.78ZM20.80 7.21C20.80 6.90 21.06 6.65 21.36 6.65L25.05 6.65C25.24 6.65 25.44 6.76 25.54 6.93C25.63 7.11 25.63 7.32 25.52 7.49L24.11 9.91C24.05 9.72 23.93 9.53 23.74 9.42C23.62 9.35 23.48 9.31 23.32 9.31C23.27 9.31 23.20 9.32 23.14 9.34L24.07 7.77L21.36 7.77C21.06 7.77 20.80 7.52 20.80 7.21ZM21.36 14C21.17 14 20.99 13.89 20.89 13.72C20.78 13.54 20.79 13.33 20.89 13.16L22.85 9.83C23.00 9.56 23.35 9.48 23.62 9.63C23.88 9.79 23.97 10.14 23.81 10.40L22.34 12.88L25.05 12.88C25.35 12.88 25.61 13.13 25.61 13.44C25.61 13.75 25.35 14 25.05 14ZM28.24 6.65C27.64 6.65 27.10 6.85 26.70 7.20C26.26 7.57 26.03 8.12 26.03 8.74C26.03 9.04 26.28 9.30 26.59 9.30C26.89 9.30 27.15 9.04 27.15 8.74C27.15 8.44 27.24 8.20 27.44 8.04C27.64 7.87 27.92 7.77 28.24 7.77C28.52 7.77 28.78 7.90 28.98 8.11C29.19 8.34 29.32 8.64 29.32 8.96L29.32 9.87C28.99 9.67 28.63 9.56 28.24 9.56C27.31 9.56 26.53 10.15 26.19 10.99C26.32 10.92 26.45 10.89 26.59 10.89C26.89 10.89 27.15 11.05 27.29 11.30C27.34 11.20 27.40 11.10 27.48 11.02C27.68 10.81 27.96 10.68 28.24 10.68C28.52 10.68 28.78 10.81 28.98 11.02C29.06 11.10 29.12 11.20 29.18 11.30C29.22 11.23 29.26 11.17 29.32 11.12C29.46 10.98 29.65 10.89 29.88 10.89C30.02 10.89 30.16 10.92 30.27 10.99C30.32 11.02 30.38 11.06 30.44 11.12L30.44 8.96C30.44 7.69 29.44 6.65 28.24 6.65ZM29.88 11.13C29.57 11.13 29.32 11.38 29.32 11.69C29.32 12.01 29.19 12.32 28.98 12.54C28.77 12.77 28.50 12.88 28.22 12.88C27.94 12.88 27.68 12.77 27.48 12.54C27.26 12.32 27.15 12.01 27.15 11.69C27.15 11.38 26.89 11.13 26.59 11.13C26.28 11.13 26.03 11.38 26.03 11.69C26.03 12.96 27.02 14 28.22 14C29.44 14 30.44 12.96 30.44 11.69C30.44 11.38 30.18 11.13 29.88 11.13Z"></path></g><!----><g data-v-423bf9ae="" id="9a70eed6-88d2-4bf5-a991-2d4d11d1326f" transform="matrix(5.192513359917535,0,0,5.192513359917535,-119.92113095526133,-115.92489930473198)" stroke="none" fill="white"><path d="M72.058 416.4c-1.5 3.767-1.074 7.783 1.3 12.276 1.273 2.408 8.353 10.119 45.829 8.229 11.88-.6 23.4-2.013 31.363-3.163a188.58 188.58 0 0 1-15.685-19.3c-22.229 10.469-36.781 11.3-44.41 2.554l-.491-.563c-5.431-6.25-8.1-8.42-9.384-9.141-2.159 1.141-6.631 4.362-8.522 9.108z"></path><circle cx="376.424" cy="104.981" r="3.149"></circle><path d="M171.08 437.2c33.449 30.361 77.928 49.371 122.032 52.156 40.041 2.526 81.781-10.863 117.533-37.71 32.1-24.1 56.805-56.794 67.879-89.787.016-.072.032-.144.051-.216a8.531 8.531 0 0 1 .313-1.19c14.189-41.209 9.112-50.08 8.342-51.1-1.336.17-4.4 2.907-4.573 5.336-.942 13.193-9.124 43.39-14.121 52.114-29.841 52.1-67.578 77.332-93.979 89.327-28.369 12.89-49.806 13.715-51.367 13.758-31.789 1.239-62.273-10.53-85.8-33.146a127.212 127.212 0 0 1-38.816-91.267c0-29.982 13.813-61.3 38.9-88.192a192.429 192.429 0 0 1 19.516-18.146c.123-.116.248-.231.383-.338.107-.086.219-.161.329-.238a206.531 206.531 0 0 1 33.464-21.892 6.018 6.018 0 0 1 .825-.427 186.211 186.211 0 0 1 30.171-12.467 6 6 0 0 1 3.695.045 68.863 68.863 0 0 1 7.777 3.333c4.21 2.016 8.192 3.923 13.412 4.621h.326c12.391 0 28.251-5.839 46.222-16.955a15.14 15.14 0 1 1 21.536-15.091c9.419-7.345 16.061-13.475 17.739-15.051 8.362-7.851 20.26-25.534 16.593-39.564-2.606-9.97-12.957-17.259-30.765-21.665a211.669 211.669 0 0 0-28.653-5.065 15.147 15.147 0 1 1-26.734-.948c-31.7 1.147-51.237 10.234-54.045 11.626-5.5 4.218-6.837 10.6-8.248 17.357-1.161 5.559-2.362 11.307-6.282 15.39-3.042 3.168-8.176 3.842-12.359 4.059a5.937 5.937 0 0 1-1.349.06 265.363 265.363 0 0 0-28.532 4.6 6.316 6.316 0 0 1-.685.146 211.582 211.582 0 0 0-32.813 10.054 6.212 6.212 0 0 1-.626.3 5.946 5.946 0 0 1-.665.22c-24.853 10.175-45.511 24.835-61.747 43.892-25.681 30.143-39.255 70.841-39.255 117.7-.004 41.916 19.308 82.53 54.376 114.361z"></path><path d="M261.283 394.292c1.646-.015 7.536-1.874 13.55-4.22.4-5.563-.24-16.429-10.861-18.452-11.257-2.144-28.792 19.88-36.972 32.927a113.765 113.765 0 0 0 18.571 23.4 50.628 50.628 0 0 1 1.6-13.681c.838-3.333 5.454-19.974 14.112-19.974z"></path><circle cx="400.049" cy="181.137" r="3.149"></circle><path d="M198.873 75.257L211 116.605a227.837 227.837 0 0 0 8.609 31.015q8.979-3.322 18.591-5.937c-15.231-18.854-20.1-56.9-21.457-71.727 6.635.46 18.87 1.008 26.865-.445a6 6 0 0 0-2.146-11.806c-4.494.817-10.976.852-16.593.659 5.2-5.031 12.462-12.923 15.2-18.968a6 6 0 0 0-10.932-4.948c-1.808 4-7.569 10.36-12.07 14.778 1.8-6.044 2.183-9.135 3.459-19.962l.025-.217a6 6 0 1 0-11.918-1.4l-.025.217c-1.39 11.8-1.6 13.533-4.149 21.485a67.989 67.989 0 0 1-9.286-13.208 6 6 0 0 0-10.729 5.375c.316.632 6.591 12.993 17.563 22.066a5.984 5.984 0 0 0-1.713-.252c-4.832 0-13.806-6.777-18.635-11.589a6 6 0 0 0-8.482 8.49c2.413 2.414 14.612 14.074 25.696 15.026zM374.924 292.2a6 6 0 0 0 .6-11.985c-7.082-.348-18.365 2.909-25.136 5.285 1.954-5.267 4.527-11.143 7.223-14.651a6 6 0 0 0-1.1-8.414 5.726 5.726 0 0 0-8.181 1.1c-4.662 6.065-8.33 15.987-10.33 22.35-12-7.295-43.867-30.365-49.094-54.121A196.2 196.2 0 0 0 269.85 244.4a243.283 243.283 0 0 0 23.975 24.143l31.113 31.588c-4.439 10.273.42 26.74 1.473 30.028a5.994 5.994 0 1 0 11.415-3.662c-2.016-6.293-3.976-17.595-1.778-21.868a5.96 5.96 0 0 0 .56-1.639c3.047 13.908 11.167 25.144 11.584 25.715a6 6 0 0 0 9.688-7.081 68.181 68.181 0 0 1-7.668-14.777 66.319 66.319 0 0 1 15.628 4.5c1.61.621 3.474 1.341 5.752 2.193a6 6 0 1 0 4.208-11.24c-2.233-.835-4.058-1.54-5.634-2.148a76.944 76.944 0 0 0-13.216-4.209c5.928-1.913 13.786-3.949 17.974-3.743zM321.238 360.115a6 6 0 0 0-7.938-3.015 174.987 174.987 0 0 0-18.417 9.814c2.856-5.666 7.337-13.381 10.687-16.381a6 6 0 1 0-8.006-8.939c-5.769 5.166-12.1 16.994-14.967 23.178a101.642 101.642 0 0 1-4.352-17.229 6 6 0 0 0-11.907 1.5c1.409 11.174 7.366 26.63 7.619 27.282.01.025.025.046.035.071.039.1.092.19.137.286a6.041 6.041 0 0 0 .368.684c.062.1.128.19.2.284a5.793 5.793 0 0 0 .543.652c.042.044.071.1.115.139s.084.077.125.117l.042.039a42.191 42.191 0 0 0 4.787 3.967 5.989 5.989 0 0 0-5.056 7.764c3.438 10.908 19.388 19.677 22.551 21.324a6 6 0 1 0 5.543-10.642c-5.86-3.053-15.2-9.7-16.648-14.288-.03-.093-.068-.181-.1-.271a95.572 95.572 0 0 0 25.584 8.818 6 6 0 0 0 2.07-11.82A89.932 89.932 0 0 1 298.5 378.8a170.387 170.387 0 0 1 19.726-10.747 6 6 0 0 0 3.012-7.938zM28.526 422.882a26.71 26.71 0 0 0 3.266.181c6.954 0 16.248-2.015 22.187-3.625-2.331 5.111-5.325 10.786-8.268 14.088a6 6 0 0 0 8.959 7.984c7.617-8.548 13.9-25.86 14.415-27.3l.027-.074v-.008c0-.01.005-.02.009-.03a5.84 5.84 0 0 0 .157-.528c.018-.07.029-.141.044-.211.024-.117.05-.233.068-.353s.025-.221.035-.331c.006-.068.018-.134.022-.2v-.071-.091a44.259 44.259 0 0 0 0-4.593 5.992 5.992 0 0 0 9.743-.694c5.958-9.762 2.076-27.546 1.238-31.012a6 6 0 0 0-11.664 2.823c1.555 6.421 2.686 17.836.183 21.938-.09.148-.169.3-.245.452a76.929 76.929 0 0 0-9.4-24.716 6 6 0 0 0-10.178 6.357 68.091 68.091 0 0 1 6.6 15.383 65.217 65.217 0 0 1-14.943-5.553c-1.64-.774-3.554-1.678-5.918-2.765a6 6 0 0 0-5.01 10.905 538.089 538.089 0 0 1 5.8 2.711 77.921 77.921 0 0 0 12.425 5.031c-6.031 1.472-13.932 2.911-18.092 2.4a6 6 0 1 0-1.471 11.909zM456.468 126.1l20.233-6.163a6 6 0 0 0-3.5-11.48l-20.233 6.164 1.746 11.741a6.009 6.009 0 0 0 1.754-.262z"></path></g><!----></svg>