<svg data-v-423bf9ae="" xmlns="http://www.w3.org/2000/svg" viewBox="0 0 141.82677594623078 60" class="font"><!----><!----><!----><g data-v-423bf9ae="" id="ab079a12-4e97-4b48-a434-9f86fd0ffdbf" fill="white" transform="matrix(4.72440951977241,0,0,4.72440951977241,-1.9842528112875613,-19.889763781626606)"><path d="M4.83 6.57C4.80 6.86 4.56 7.08 4.27 7.08C3.98 7.08 3.72 6.86 3.71 6.57L3.71 6.52C3.71 6.20 3.58 5.89 3.37 5.67C3.16 5.45 2.90 5.33 2.62 5.33C2.34 5.33 2.07 5.45 1.88 5.67C1.65 5.89 1.54 6.20 1.54 6.52L1.54 6.57C1.51 6.86 1.27 7.08 0.98 7.08C0.69 7.08 0.45 6.86 0.42 6.57L0.42 6.52C0.42 5.25 1.41 4.21 2.62 4.21C3.84 4.21 4.83 5.25 4.83 6.52ZM4.83 13.44C4.83 13.75 4.58 14 4.27 14C3.96 14 3.71 13.75 3.71 13.44L3.71 10.58L1.54 10.58L1.54 13.44C1.54 13.75 1.29 14 0.98 14C0.67 14 0.42 13.75 0.42 13.44L0.42 7.10C0.56 7.24 0.76 7.32 0.98 7.32C1.20 7.32 1.40 7.24 1.54 7.10L1.54 9.46L3.71 9.46L3.71 7.10C3.85 7.24 4.05 7.32 4.27 7.32C4.48 7.32 4.68 7.24 4.83 7.10ZM5.67 8.96C5.67 8.72 5.71 8.48 5.77 8.27C6.05 7.34 6.89 6.66 7.85 6.65L7.87 6.65C9.09 6.65 10.08 7.69 10.08 8.96C10.08 9.06 10.05 9.14 10.02 9.21C9.93 9.39 9.73 9.52 9.52 9.52C9.30 9.52 9.10 9.39 9.02 9.21C8.97 9.14 8.96 9.06 8.96 8.96C8.96 8.64 8.83 8.34 8.62 8.11C8.41 7.90 8.15 7.77 7.87 7.77C7.59 7.77 7.32 7.90 7.13 8.11C6.90 8.34 6.79 8.64 6.79 8.96C6.79 9.06 6.78 9.14 6.73 9.21C6.64 9.39 6.45 9.52 6.23 9.52C6.01 9.52 5.82 9.39 5.73 9.21C5.70 9.14 5.67 9.06 5.67 8.96ZM10.08 11.69C10.08 12.96 9.09 14 7.87 14C7.48 14 7.11 13.89 6.79 13.71L6.79 16.35C6.79 16.66 6.54 16.91 6.23 16.91C5.92 16.91 5.67 16.66 5.67 16.35L5.67 9.52C5.81 9.67 6.01 9.76 6.23 9.76C6.45 9.76 6.65 9.67 6.79 9.52L6.79 11.69C6.79 12.01 6.90 12.32 7.13 12.54C7.32 12.77 7.59 12.88 7.87 12.88C8.15 12.88 8.41 12.77 8.62 12.54C8.83 12.32 8.96 12.01 8.96 11.69L8.96 9.52C9.10 9.67 9.30 9.76 9.52 9.76C9.73 9.76 9.93 9.67 10.08 9.52ZM12.04 11.12C11.90 10.98 11.70 10.89 11.48 10.89C11.27 10.89 11.06 10.98 10.92 11.12L10.92 4.79C10.92 4.48 11.17 4.23 11.48 4.23C11.79 4.23 12.04 4.48 12.04 4.79ZM11.48 11.13C11.79 11.13 12.04 11.38 12.04 11.69C12.04 12.01 12.17 12.32 12.38 12.54C12.57 12.77 12.84 12.88 13.12 12.88C13.43 12.88 13.72 12.74 13.93 12.47C14.13 12.24 14.48 12.21 14.71 12.40C14.97 12.60 14.99 12.95 14.80 13.19C14.38 13.71 13.78 14 13.12 14C11.91 14 10.92 12.96 10.92 11.69C10.92 11.38 11.17 11.13 11.48 11.13ZM16.67 11.12C16.53 10.98 16.34 10.89 16.11 10.89C15.89 10.89 15.69 10.98 15.55 11.12L15.55 7.21C15.55 6.90 15.81 6.65 16.11 6.65C16.42 6.65 16.67 6.90 16.67 7.21ZM19.96 11.12C19.81 10.98 19.61 10.89 19.40 10.89C19.18 10.89 18.98 10.98 18.84 11.12L18.84 7.21C18.84 6.90 19.10 6.65 19.40 6.65C19.71 6.65 19.96 6.90 19.96 7.21ZM17.75 14C16.55 14 15.55 12.96 15.55 11.69C15.55 11.38 15.81 11.13 16.11 11.13C16.42 11.13 16.67 11.38 16.67 11.69C16.67 12.01 16.79 12.32 17.01 12.54C17.21 12.77 17.47 12.88 17.75 12.88C18.03 12.88 18.30 12.77 18.51 12.54C18.72 12.32 18.84 12.01 18.84 11.69C18.84 11.38 19.10 11.13 19.40 11.13C19.71 11.13 19.96 11.38 19.96 11.69C19.96 12.96 18.97 14 17.75 14ZM19.96 14.60C19.96 15.88 18.97 16.91 17.75 16.91C17.16 16.91 16.62 16.73 16.23 16.38C15.79 16.00 15.55 15.44 15.55 14.83C15.55 14.52 15.81 14.27 16.11 14.27C16.42 14.27 16.67 14.52 16.67 14.83C16.67 15.13 16.77 15.37 16.97 15.54C17.16 15.71 17.44 15.79 17.75 15.79C18.03 15.79 18.30 15.68 18.51 15.46C18.72 15.23 18.84 14.92 18.84 14.60L18.84 13.97C19.33 13.72 19.73 13.30 19.96 12.78ZM20.80 7.21C20.80 6.90 21.06 6.65 21.36 6.65L25.05 6.65C25.24 6.65 25.44 6.76 25.54 6.93C25.63 7.11 25.63 7.32 25.52 7.49L24.11 9.91C24.05 9.72 23.93 9.53 23.74 9.42C23.62 9.35 23.48 9.31 23.32 9.31C23.27 9.31 23.20 9.32 23.14 9.34L24.07 7.77L21.36 7.77C21.06 7.77 20.80 7.52 20.80 7.21ZM21.36 14C21.17 14 20.99 13.89 20.89 13.72C20.78 13.54 20.79 13.33 20.89 13.16L22.85 9.83C23.00 9.56 23.35 9.48 23.62 9.63C23.88 9.79 23.97 10.14 23.81 10.40L22.34 12.88L25.05 12.88C25.35 12.88 25.61 13.13 25.61 13.44C25.61 13.75 25.35 14 25.05 14ZM28.24 6.65C27.64 6.65 27.10 6.85 26.70 7.20C26.26 7.57 26.03 8.12 26.03 8.74C26.03 9.04 26.28 9.30 26.59 9.30C26.89 9.30 27.15 9.04 27.15 8.74C27.15 8.44 27.24 8.20 27.44 8.04C27.64 7.87 27.92 7.77 28.24 7.77C28.52 7.77 28.78 7.90 28.98 8.11C29.19 8.34 29.32 8.64 29.32 8.96L29.32 9.87C28.99 9.67 28.63 9.56 28.24 9.56C27.31 9.56 26.53 10.15 26.19 10.99C26.32 10.92 26.45 10.89 26.59 10.89C26.89 10.89 27.15 11.05 27.29 11.30C27.34 11.20 27.40 11.10 27.48 11.02C27.68 10.81 27.96 10.68 28.24 10.68C28.52 10.68 28.78 10.81 28.98 11.02C29.06 11.10 29.12 11.20 29.18 11.30C29.22 11.23 29.26 11.17 29.32 11.12C29.46 10.98 29.65 10.89 29.88 10.89C30.02 10.89 30.16 10.92 30.27 10.99C30.32 11.02 30.38 11.06 30.44 11.12L30.44 8.96C30.44 7.69 29.44 6.65 28.24 6.65ZM29.88 11.13C29.57 11.13 29.32 11.38 29.32 11.69C29.32 12.01 29.19 12.32 28.98 12.54C28.77 12.77 28.50 12.88 28.22 12.88C27.94 12.88 27.68 12.77 27.48 12.54C27.26 12.32 27.15 12.01 27.15 11.69C27.15 11.38 26.89 11.13 26.59 11.13C26.28 11.13 26.03 11.38 26.03 11.69C26.03 12.96 27.02 14 28.22 14C29.44 14 30.44 12.96 30.44 11.69C30.44 11.38 30.18 11.13 29.88 11.13Z"></path></g><!----><!----></svg>